<svg xmlns="http://www.w3.org/2000/svg" fill="#c6b689" stroke="#7F6E3B" stroke-width="15px" id="Layer_3" data-name="Layer 3" viewBox="0 0 492.3 583.47"><defs><style>.cls-1{font-size:60px;font-family:Roboto-Bold, Roboto;font-weight:700;}.cls-2{fill:#fff;}</style></defs><path d="M250.46,129.8h-.3c-61.51.16-123,41.66-123.34,124.53,0,16.23,4.56,34.47,20.07,61.47,19,30.5,28.12,60.41,32.8,90H320.93c4.68-29.59,13.8-59.49,32.8-90,15.51-27,20.07-45.24,20.07-61.47C373.45,171.46,312,130,250.46,129.8Z" transform="translate(-3.77 -13.39)"/><path d="M188.64,414.8H312.09v18c0,4.63-7.12,11.75-10.75,11.75h-101c-4.75,0-11.5-6.25-11.5-12Z" transform="translate(-3.77 -13.39)"/><path d="M203.86,453.55h93v13.06c0,3.36-5.37,8.52-8.1,8.52h-76.1c-3.58,0-8.67-4.53-8.67-8.71Z" transform="translate(-3.77 -13.39)"/><path d="M221.09,483.05h58.54v10.13c0,2.6-3.38,6.62-5.1,6.62H260.39c-1.83,5.88-6,8.36-9.63,8.42-3.8.06-7.74-3-9.53-8.42H227.1c-2.25,0-5.91-3.52-5.91-6.76Z" transform="translate(-3.77 -13.39)" style="&#10;    fill: #7F6E3B;&#10;"/><rect x="92.22" y="74.15" width="21.4" height="75.87" rx="10.7" ry="10.7" transform="translate(-52.88 92.21) rotate(-45)" style="&#10;    fill: #7F6E3B;&#10;"/><rect x="386.22" y="369.06" width="21.4" height="75.87" rx="10.7" ry="10.7" transform="translate(-175.3 386.48) rotate(-45)" style="&#10;    fill: #7F6E3B;&#10;"/><rect x="31.01" y="221.28" width="21.4" height="75.87" rx="10.7" ry="10.7" transform="translate(-221.28 287.53) rotate(-90)" style="&#10;    fill: #7F6E3B;&#10;"/><rect x="447.43" y="221.93" width="21.4" height="75.88" rx="10.7" ry="10.7" transform="translate(194.5 704.6) rotate(-90)" style="&#10;    fill: #7F6E3B;&#10;"/><rect x="91.76" y="368.6" width="21.4" height="75.87" rx="10.7" ry="10.7" transform="translate(-116.32 753.07) rotate(-135)" style="&#10;    fill: #7F6E3B;&#10;"/><rect x="386.67" y="74.6" width="21.4" height="75.88" rx="10.7" ry="10.7" transform="translate(595.01 459.71) rotate(-135)" style="&#10;    fill: #7F6E3B;&#10;"/><rect x="239.54" y="13.39" width="21.4" height="75.88" rx="10.7" ry="10.7" transform="translate(496.71 89.27) rotate(-180)" style="&#10;    fill: #7F6E3B;&#10;"/><path class="cls-2" d="M161.6,251.05c0,8.33,15.75,8.33,15.75,0,4.8-48.36,30.3-72.13,73.19-75.25,8.92,0,8.92-15.5,0-15.5C200.17,162.26,169,190.4,161.6,251.05Z" transform="translate(-3.77 -13.39)"/></svg>