<svg fill="#c6b689" stroke="#7F6E3B" stroke-width="15px" id="Layer_2" data-name="Layer 2" xmlns="http://www.w3.org/2000/svg" viewBox="0 0 471 481.21"><defs><style>.cls-1{font-size:45px;font-family:Roboto-Bold, Roboto;font-weight:700;}.cls-2{letter-spacing:-0.01em;}.cls-3{letter-spacing:0.01em;}</style></defs><path stroke-width="10px" d="M122.19,347.72,96.26,134.14A10,10,0,0,1,107.53,123L473.06,161.5c3,.41,7.56.76,9.23,3.26,1.32,2-1,9.87-1,9.87L453.49,350.25s-5.2,6.86-9.59,6.86l-311.71-.57A10,10,0,0,1,122.19,347.72ZM466.83,178.34l-349.06-33.8L141,336.46l298,.57Z" transform="translate(-11.7 -107.15)"/><path stroke-width="10px" d="M99.57,142.45,112.45,127c-.92-.76-22.43-18.35-53.17-16.51l1.26,20.06C83,129.18,99.42,142.28,99.57,142.45Z" transform="translate(-11.7 -107.15)"/><path stroke-width="10px" d="M448.82,416.34A10.06,10.06,0,0,0,456,399.19c-21-21.14-52.83-21.39-54.13-21.39l-278.12-.48,17.74-27a10.05,10.05,0,0,0-18.59-7.67L99.38,383.56a10.1,10.1,0,0,0,9.32,13.89l293.13.48c.16,0,24.89.31,39.84,15.43A10.11,10.11,0,0,0,448.82,416.34Z" transform="translate(-11.7 -107.15)"/><polygon stroke-width="8px" points="456.91 119.76 457.44 109.73 96.44 80.72 95.93 90.75 456.91 119.76"/><polygon stroke-width="8px" points="205.07 235.11 215.11 234.79 209.2 36.92 199.19 37.24 205.07 235.11"/><polygon stroke-width="8px" points="162.11 234.67 172.15 234.02 158.37 31.26 148.33 31.95 162.11 234.67"/><path stroke-width="10px" d="M142.67,442.38h7a5.72,5.72,0,0,0,5.72-5.72V407.93a13.32,13.32,0,0,0-13.32-13.32h-5.15v42.05A5.72,5.72,0,0,0,142.67,442.38Z" transform="translate(-11.7 -107.15)"/><path stroke-width="10px" d="M11.7,107.15H63.29a5.25,5.25,0,0,1,5.25,5.25v15.53a5.25,5.25,0,0,1-5.25,5.25H11.7a0,0,0,0,1,0,0v-26A0,0,0,0,1,11.7,107.15Z" transform="translate(68.54 133.18) rotate(-180)"/><polygon stroke-width="8px" points="453.59 163.25 453.96 153.22 111.59 127.54 111.25 137.57 453.59 163.25"/><polygon stroke-width="8px" points="444.33 201.82 444.44 191.79 115.11 172.96 115.03 183 444.33 201.82"/><polygon stroke-width="8px" points="265.28 235.44 260.91 42.47 250.87 42.74 255.21 235.67 265.28 235.44"/><polygon stroke-width="8px" points="307.77 241.73 316.8 48.93 306.77 48.5 297.7 241.26 307.77 241.73"/><polygon stroke-width="8px" points="355.98 243.6 366.87 50.9 356.84 50.37 345.92 243.04 355.98 243.6"/><polygon stroke-width="8px" points="396.85 245.4 423.5 54.23 413.55 52.88 386.87 244.01 396.85 245.4"/><path stroke-width="10px" d="M146.2,404.59a32.18,32.18,0,1,0,32.17,32.18A32.16,32.16,0,0,0,146.2,404.59Zm0,57.78a25.6,25.6,0,1,1,25.6-25.6A25.6,25.6,0,0,1,146.2,462.37Z" transform="translate(-11.7 -107.15)"/><circle cx="134.49" cy="327.08" r="3.8"/><path stroke-width="10px" d="M383.38,442.15h7a5.72,5.72,0,0,0,5.72-5.72V407.71a13.32,13.32,0,0,0-13.32-13.32h-5.15v42.05A5.72,5.72,0,0,0,383.38,442.15Z" transform="translate(-11.7 -107.15)"/><path stroke-width="10px" d="M386.91,404.36a32.18,32.18,0,1,0,32.17,32.18A32.16,32.16,0,0,0,386.91,404.36Zm0,57.78a25.6,25.6,0,1,1,25.6-25.6A25.6,25.6,0,0,1,386.91,462.14Z" transform="translate(-11.7 -107.15)"/><circle cx="375.2" cy="326.85" r="3.8"/></svg>
