<svg fill="#c6b689" stroke="#7F6E3B" stroke-width="15px" id="Layer_2" data-name="Layer 2" xmlns="http://www.w3.org/2000/svg" viewBox="0 0 472.1 563.86"><defs><style>.cls-1{font-size:45px;font-family:Roboto-Bold, Roboto;font-weight:700;}.cls-2{letter-spacing:-0.01em;}</style></defs><path d="M276.2,473.65l5.56-191.09c-16.71-3.67-31-14.31-39.89-27.65-11.06-16.58,8.52-163.26,8.52-163.26h11.3l-.32,137.64h10.1V91.67h9.69V229.33h8.57l-.09-137.46h9.24L299,229.33h9.86L309,91.67h9.92V229.33H329.2V91.67H339s19.58,146.69,8.5,163.26c-8.84,13.21-23,23.81-39.46,27.58l-.56.21,5.93,186.16Z" transform="translate(-12.99 -24.5)"/><path d="M284.87,145.86" transform="translate(-12.99 -24.5)"/><path d="M249.05,24.5C118.91,24.5,13,130.39,13,260.55S118.91,496.6,249.05,496.6s236-105.93,236-236.05S379.19,24.5,249.05,24.5Zm0,443.6C134.59,468.1,41.48,375,41.48,260.56S134.59,53,249,53,456.6,146.11,456.6,260.56,363.48,468.1,249,468.1Z" transform="translate(-12.99 -24.5)"/><path d="M243.59,473.55" transform="translate(-12.99 -24.5)"/><path d="M158.32,293.28v-203a4.56,4.56,0,0,1,8.2-2.76,192.09,192.09,0,0,1,39,116.06v74.25a15.42,15.42,0,0,1-15.42,15.42H183.7c6.34,65.45,7.18,173.44,7.18,173.44l-40.37,9.56S152,358.73,158.32,293.28Z" transform="translate(-12.99 -24.5)"/></svg>
