<svg xmlns="http://www.w3.org/2000/svg" fill="#c6b689" stroke="#7F6E3B" stroke-width="15px" id="Layer_1" data-name="Layer 1" viewBox="0 0 396.21 544.26"><defs><style>.cls-1{font-size:60px;font-family:Roboto-Bold, Roboto;font-weight:700;}.cls-2{letter-spacing:-0.01em;}</style></defs><path d="M367.58,78.52,331.69,43.66a8.7,8.7,0,0,0-12.94,0l-.42.42a9.91,9.91,0,0,0,0,14l11.76,13.48c1.7,1.7,2.21,4.6-.19,4.6H269.72A9.91,9.91,0,0,0,259.85,86h0a9.91,9.91,0,0,0,9.88,9.88h60.55c2,0,1.28,2.42-.13,3.83l-11.81,13.53a9.91,9.91,0,0,0,0,14l.42.42c3.84,3.84,8.76,3.84,12.6,0l36.23-34.85a10.31,10.31,0,0,0,0-14.27Z" transform="translate(-32.19 -35.6)" style="&#10;    fill: #7F6E3B;&#10;"/><path d="M35.06,78.52,70.95,43.66a8.7,8.7,0,0,1,12.94,0l.42.42a9.91,9.91,0,0,1,0,14L72.54,71.53c-1.7,1.7-2.21,4.6.19,4.6h60.18A9.91,9.91,0,0,1,142.79,86h0a9.91,9.91,0,0,1-9.88,9.88H72.36c-2,0-1.28,2.42.13,3.83L84.3,113.25a9.91,9.91,0,0,1,0,14l-.42.42c-3.84,3.84-8.76,3.84-12.6,0L35.06,92.78a10.31,10.31,0,0,1,0-14.27Z" transform="translate(-32.19 -35.6)" style="&#10;    fill: #7F6E3B;&#10;"/><path d="M169.82,63.63c.39-36.47,62.15-38.27,61.76,0l-.17,130c0,1.62,3.75,1.28,3.75-.34.08-38.29,66.87-45.49,66.1,6.52,0,.8,2.58,1.4,2.89.67,14.29-33.66,59.59-26.14,64.24,14.47.14,1.26,4.14,1.57,4.84.51,10.69-16.23,49.59-17.78,54.35,18.46l-.2,104.66c0,60.56-48.83,138.06-142.53,138.06-45.87,0-90.82-21.37-115.6-55.79L61.83,253.59c-10.2-26.82,23-54.49,48.36-34.2l47.9,62.21c1.88,3.56,10.57.71,10.67-3.31Z" transform="translate(-32.19 -35.6)" style="&#10;"/></svg>