<svg fill="#c6b689" stroke="#7F6E3B" stroke-width="15px" id="Layer_2" data-name="Layer 2" xmlns="http://www.w3.org/2000/svg" viewBox="0 0 462.37 562.43">
<defs>
<style>.cls-1{font-size:60px;font-family:Roboto-Bold, Roboto;font-weight:700;}</style>
   <linearGradient id="linear" x1="0%" y1="0%" x2="100%" y2="0%">
     <stop offset="0%"   stop-color="#7F6E3B"/>
     <stop offset="50%"  stop-color="#EBDFBE"/>
     <stop offset="100%" stop-color="#A69460"/>
   </linearGradient>

    <linearGradient id="linear2" x1="0%" y1="0%" x2="100%" y2="0%">
     <stop offset="0%"   stop-color="#A69460"/>
     <stop offset="50%"  stop-color="#EBDFBE"/>
     <stop offset="100%" stop-color="#7F6E3B"/>
   </linearGradient>
</defs>
<path fill="url(#linear2)" d="M92.42,0h84a4.17,4.17,0,0,1,4.17,4.17V72a0,0,0,0,1,0,0H88.25a0,0,0,0,1,0,0V4.17A4.17,4.17,0,0,1,92.42,0Z"/>
<path fill="url(#linear2)" d="M19.43,465.83l.51-142.13c5.84-78.25,68.28-146.17,70.84-211.89h109.5l-.07,185.84c-6.25.34-15.34,6.28-15.34,16L184.95,466Z" transform="translate(-19.43 -30)"/>
<rect x="195.3" y="81.8" width="71.97" height="182.93"/>
<path fill="#7F6E3B" d="M0,443.82H165.37a0,0,0,0,1,0,0v18.33a3,3,0,0,1-3,3H3a3,3,0,0,1-3-3V443.82a0,0,0,0,1,0,0Z"/>
<path fill="url(#linear2)" d="M300.67,30H393a0,0,0,0,1,0,0V97.83a4.17,4.17,0,0,1-4.17,4.17h-84a4.17,4.17,0,0,1-4.17-4.17V30A0,0,0,0,1,300.67,30Z" transform="translate(674.28 102) rotate(-180)"/>
<path fill="url(#linear)" d="M481.8,465.83l-.51-142.13C475.45,245.44,413,177.53,410.45,111.8H300.95L301,297.64c6.25.34,15.34,6.28,15.34,16L316.28,466Z" transform="translate(-19.43 -30)"/>
<path fill="#7F6E3B" d="M319.46,473.82h159.3a3,3,0,0,1,3,3v18.33a0,0,0,0,1,0,0H316.43a0,0,0,0,1,0,0V476.85A3,3,0,0,1,319.46,473.82Z" transform="translate(778.8 939) rotate(-180)"/>
</svg>